<?xml version="1.0" encoding="utf-8" ?><svg xmlns="http://www.w3.org/2000/svg" xmlns:xlink="http://www.w3.org/1999/xlink" width="1024" height="1024" viewBox="0 0 1024 1024"><rect fill="white" x="0" y="0" width="1024" height="1024" rx="220" ry="220"/><path fill="#0E1B33" d="M535.687 101.615C557.214 101.999 576.793 102.881 598.168 106.166C697.519 121.437 789.849 178.602 851.08 257.871C894.663 314.122 922.377 381.024 931.339 451.617C933.087 466.186 934.574 481.274 934.389 495.98L880.129 496.042L880.187 498.466C882.901 614.137 836.364 719.235 744.864 791.159C686.153 837.462 614.056 863.562 539.31 865.572C313.235 870.193 139.652 666.84 184.159 444.258C212.2 304.019 327.777 187.619 470.226 165.806C491.969 162.477 513.612 162.207 535.567 161.821L535.687 101.615Z"/><path fill="white" d="M535.687 101.615C557.214 101.999 576.793 102.881 598.168 106.166C697.519 121.437 789.849 178.602 851.08 257.871C894.663 314.122 922.377 381.024 931.339 451.617C933.087 466.186 934.574 481.274 934.389 495.98L880.129 496.042C869.559 495.53 855.07 495.959 844.273 495.961C814.407 496.154 784.541 496.17 754.675 496.01C733.053 567.312 675.499 613.902 600.721 618.45C589.942 619.106 579.294 618.214 568.557 617.374L512.314 673.238C504.316 681.324 496.246 689.34 488.106 697.284C475.308 709.822 467.725 719.07 448.419 719.076C422.511 719.085 396.571 718.766 370.664 718.983C362.894 719.048 354.609 719.495 347.016 717.737C339.396 715.903 332.42 712.024 326.842 706.518C311.731 691.536 314.46 672.77 314.53 653.213L314.449 618.749C314.416 601.08 315.861 590.773 329.02 577.65C336.578 570.113 344.447 562.02 351.897 554.34L429.199 475.536C425.049 441.942 427.775 415.785 440.967 383.846C454.668 350.675 479.976 322.626 510.781 304.247C518.104 299.878 527.757 296.037 535.774 292.746C535.04 280.834 535.638 262.061 535.637 249.54L535.567 161.821L535.687 101.615Z"/><path fill="#39FF14" d="M535.687 101.615C557.214 101.999 576.793 102.881 598.168 106.166C697.519 121.437 789.849 178.602 851.08 257.871C894.663 314.122 922.377 381.024 931.339 451.617C933.087 466.186 934.574 481.274 934.389 495.98L880.129 496.042C869.559 495.53 855.07 495.959 844.273 495.961C814.407 496.154 784.541 496.17 754.675 496.01C764.593 459.668 761.923 421.039 747.1 386.406C730.612 347.052 697.954 313.216 658.638 296.276C622.212 280.581 572.816 277.102 535.774 292.746C535.04 280.834 535.638 262.061 535.637 249.54L535.567 161.821L535.687 101.615Z"/><path fill="#0E1B33" d="M583.318 327.205C593.493 325.87 610.229 327.866 619.965 330.379C653.439 338.708 682.106 360.254 699.413 390.093C715.756 417.915 720.211 451.145 711.773 482.289C703.166 514.337 682.127 541.626 653.324 558.102C621.106 576.449 588.147 577.852 553.176 568.18C541.18 579.59 529.034 593.761 517.488 604.266C508.632 603.771 493.282 604.363 483.978 604.467L483.864 636.991C478.151 642.989 472.353 648.905 466.472 654.737C463.58 657.863 460.924 660.772 457.801 663.686C451.957 661.617 445.121 658.502 439.076 656.191C437.653 660.015 432.617 669.153 430.51 673.433C409.48 674.574 381.06 673.893 359.395 673.97L359.469 611.686C368.251 603.042 376.881 593.562 385.552 584.683L451.703 517.077C460.377 508.234 469.889 497.816 478.72 489.416C465.971 447.276 471.687 405.883 499.837 370.922C520.859 344.813 550.053 330.331 583.318 327.205Z"/><path fill="white" d="M601.048 380.623C605.797 380.191 615.693 381.095 618.999 384.391C629.779 395.137 645.134 408.571 654.355 420.406C669.934 440.4 657.093 464.784 633.524 469.321C629.567 469.628 621.06 468.72 618.41 465.929C608.611 455.608 576.866 428.803 574.08 416.39C572.569 409.589 573.825 402.466 577.57 396.591C582.785 388.419 591.664 382.782 601.048 380.623Z"/></svg>